<svg width="159" height="131" viewBox="0 0 159 131" fill="none" xmlns="http://www.w3.org/2000/svg">
<path fill-rule="evenodd" clip-rule="evenodd" d="M30.9232 46.3987L30.9104 46.905L41.7329 69.4688C42.7703 68.4446 51.8593 48.7063 53.3535 45.5735C55.2559 41.5848 57.1465 37.498 59.1364 33.4762L64.9004 21.3302L83.6684 21.2462C83.2419 23.1105 75.2863 39.2772 73.8137 42.365C67.4336 55.7437 60.3559 71.1532 53.8479 84.2472C50.383 91.2184 47.2895 98.5676 43.8072 105.301L43.4654 107.372C45.6939 111.056 54.2175 117.949 58.1397 120.437C63.825 124.043 69.9183 126.907 77.3867 128.824C93.3809 132.929 111.223 130.21 123.65 123.544C135.555 117.158 145.523 107.594 151.511 95.8412C174.254 51.2087 142.198 1.20255 95.6732 0.0227119C65.316 -0.747166 39.8309 18.1227 30.9232 46.3987Z" fill="#005925"/>
<path fill-rule="evenodd" clip-rule="evenodd" d="M30.9099 46.9054C28.872 50.741 28.2846 58.6941 28.2221 63.1665C28.0691 74.092 31.5099 84.4334 36.1935 93.6626C37.8605 96.9474 41.3653 102.784 43.8067 105.301C47.289 98.568 50.3825 91.2188 53.8474 84.2476C60.3554 71.1536 67.4331 55.7441 73.8133 42.3654C75.2858 39.2776 83.2414 23.1109 83.668 21.2466L64.8999 21.3306L59.1359 33.4766C57.1462 37.4982 55.2556 41.5852 53.3531 45.5739C51.8588 48.7069 42.7699 68.4451 41.7324 69.4692L30.9099 46.9054Z" fill="white"/>
<path fill-rule="evenodd" clip-rule="evenodd" d="M43.4653 107.372L43.8071 105.3C41.3659 102.783 37.8609 96.9466 36.1939 93.6618C31.5102 84.4328 28.0695 74.0913 28.2224 63.1657C28.2849 58.6933 28.8726 50.7402 30.9103 46.9046L30.9231 46.3983C29.3539 44.6454 19.7557 22.1431 18.7023 21.4333C16.7311 20.7231 3.24814 21.2022 0 21.2533C0.293449 23.3534 33.9362 89.1865 37.6573 96.9882C38.5422 98.8435 39.4428 100.61 40.3407 102.423L42.3378 106.482C42.8314 107.366 42.587 107.229 43.4649 107.371L43.4653 107.372Z" fill="#25BA25"/>
<path d="M61.953 90.0592V85.4972H76.0765V90.0592H61.953ZM72.8529 73.5045L82.1682 93.993H76.131L68.318 75.9084H69.9571L62.1167 93.993H56.0795L65.395 73.5045H72.8529Z" fill="white"/>
<path d="M103.094 90.032L101.346 90.3871V73.5045H106.837V93.993H99.7068L87.878 77.1379L89.5991 76.7827V93.993H84.1082V73.5045H91.4294L103.094 90.032Z" fill="white"/>
<path d="M116.316 73.5045V91.4798L113.776 88.9666H129.101V93.993H110.661V73.5045H116.316Z" fill="white"/>
<path d="M134.647 93.993V84.0218H140.329V93.993H134.647ZM125.031 73.5045H131.314L138.744 82.9566H136.204L143.607 73.5045H149.89L139.291 86.9724L135.657 87.0269L125.031 73.5045Z" fill="white"/>
<path fill-rule="evenodd" clip-rule="evenodd" d="M61.2043 37.2778C66.7086 37.5373 72.4391 37.5488 78.0028 37.647L111.702 38.2726C117.379 38.3499 123.1 38.4316 128.771 38.5935L128.799 40.8619L62.1405 42.1454C62.9462 42.3903 93.5803 42.8065 95.2996 42.8407C100.851 42.9512 106.415 43.086 111.964 43.1532C117.536 43.221 123.225 43.4979 128.775 43.4556L128.796 45.7306L61.4044 47.0313L128.782 48.3345L128.795 50.6094L61.0927 51.9112C67.53 52.1772 74.0962 52.1992 80.5558 52.3132L124.678 53.1335C126.059 53.1603 128.319 53.0415 129.548 53.1875C132.399 53.5257 135.554 54.0284 138.381 54.2405L128.796 54.2522L128.785 55.475C117.572 55.709 106.375 55.9537 95.1878 56.1261C89.6074 56.2121 84.0309 56.3805 78.4543 56.4481C76.493 56.4719 62.3486 56.6067 61.7251 56.8486C62.3256 57.1982 113.828 57.9728 121.905 58.125C128.615 58.2511 135.5 58.5393 142.189 58.5028C142.228 57.8976 142.196 57.6325 142.388 57.0395C142.455 56.8314 142.523 56.6617 142.605 56.487L142.985 55.9226C143.006 57.2057 143.063 58.4352 143.652 59.3786C144.977 61.5015 150.674 61.5685 149.432 55.4307C150.621 55.5453 150.436 57.4561 150.385 58.5498C151.731 58.504 152.604 57.7243 152.944 56.6088C153.194 55.7876 152.923 53.4802 152.838 52.5207C152.739 51.4028 151.408 51.1783 150.014 50.8971C149.014 50.6955 146.855 50.6122 146.136 50.2317C147.36 50.152 148.506 50.1101 149.733 50.2026C150.878 50.2891 151.781 50.6314 152.684 50.734C152.543 49.0141 149.88 48.7373 148.17 48.431C147.182 48.2538 146.176 48.1237 145.172 48.0057C144.424 47.9177 142.648 47.8539 142.073 47.6475L140.797 44.4243L143.073 44.4256C142.099 42.6271 138.94 42.8111 136.41 42.6147L141.041 42.1702C140.878 41.6637 140.179 41.3004 139.803 40.8357C138.977 39.8163 136.193 38.0139 134.977 37.4542C131.619 35.909 129.517 35.9741 125.567 36.047L61.2044 37.2777L61.2043 37.2778ZM132.968 46.6195L134.922 46.6076L134.666 43.7928L132.771 43.7934L132.968 46.6195ZM135.999 47.4007L141.046 47.4164L139.68 43.9954L135.639 43.9894L135.999 47.4007Z" fill="#25BA25"/>
</svg>
